
<svg xmlns="http://www.w3.org/2000/svg" version="1.1" xmlns:xlink="http://www.w3.org/1999/xlink" xmlns:svgjs="http://svgjs.com/svgjs"  preserveAspectRatio="none" viewBox="0 0 1440 560">
    <g mask="url(&quot;#SvgjsMask3534&quot;)" fill="none">
        <rect width="1440" height="560" x="0" y="0" fill="url(#SvgjsLinearGradient3535)"></rect>
        <path d="M600.61,303.867C626.752,303.783,652.005,294.414,666.931,272.952C684.45,247.761,695.246,215.423,681.028,188.232C666,159.492,633.042,146.269,600.61,146.118C567.885,145.965,534.136,158.524,518.88,187.475C504.365,215.02,515.657,247.899,533.549,273.379C548.673,294.917,574.292,303.951,600.61,303.867" fill="rgba(23, 82, 200, 0.4)" class="triangle-float3"></path>
        <path d="M213.44720536002353 508.01374983646474L277.9729040666395 381.6727395799907 154.0363165895441 386.0007005828722z" fill="rgba(23, 82, 200, 0.4)" class="triangle-float1"></path>
        <path d="M1128.508,373.151C1174.869,372.806,1220.48,354.724,1244.574,315.114C1269.584,273.998,1270.371,221.762,1245.744,180.416C1221.652,139.969,1175.576,121.201,1128.508,120.253C1079.456,119.265,1028.216,133.56,1002.796,175.523C976.604,218.761,982.275,274.212,1009.407,316.866C1034.667,356.576,1081.446,373.502,1128.508,373.151" fill="rgba(23, 82, 200, 0.4)" class="triangle-float3"></path>
        <path d="M430.3764200598438 331.1537287288244L502.46076261284105 238.88997766597592 410.1970115499926 166.80563511297862 338.11266899699535 259.0693861758271z" fill="rgba(23, 82, 200, 0.4)" class="triangle-float3"></path>
        <path d="M208.203,285.684C232.46,287.226,259.86,283.186,272.035,262.149C284.223,241.089,274.416,215.083,260.688,194.992C248.858,177.68,229.165,169.218,208.203,168.73C186.186,168.217,162.555,173.512,151.304,192.444C139.868,211.688,145.373,235.729,157.034,254.837C168.153,273.058,186.9,284.33,208.203,285.684" fill="rgba(23, 82, 200, 0.4)" class="triangle-float1"></path>
        <path d="M356.62035323333924 217.16004576175348L430.466223717205 215.87106129777686 391.60981177930717 105.74674780396647z" fill="rgba(23, 82, 200, 0.4)" class="triangle-float1"></path>
        <path d="M485.319,287.54C522.991,285.81,553.009,260.022,572.166,227.538C591.701,194.414,600.445,155.204,583.811,120.533C564.771,80.847,529.303,48.223,485.319,46.514C438.726,44.703,394.672,71.246,372.613,112.326C351.595,151.467,359.424,198.842,383.459,236.206C405.505,270.479,444.611,289.41,485.319,287.54" fill="rgba(23, 82, 200, 0.4)" class="triangle-float1"></path>
        <path d="M1398.0988337939923 585.9956149032148L1337.351527659712 461.44517977050634 1273.548398661284 646.7429210374951z" fill="rgba(23, 82, 200, 0.4)" class="triangle-float3"></path>
        <path d="M32.34945097930666-59.06430392176923L29.517231394165634 103.19344744084549 191.77498275678036 106.02566702598651 194.60720234192138-56.232084336628205z" fill="rgba(23, 82, 200, 0.4)" class="triangle-float3"></path>
    </g>
    <defs>
        <mask id="SvgjsMask3534">
            <rect width="1440" height="560" fill="#ffffff"></rect>
        </mask>
        <linearGradient x1="15.28%" y1="-39.29%" x2="84.72%" y2="139.29%" gradientUnits="userSpaceOnUse" id="SvgjsLinearGradient3535">
            <stop stop-color="rgba(61, 225, 163, 1)" offset="0"></stop>
            <stop stop-color="rgba(75, 170, 207, 1)" offset="1"></stop>
        </linearGradient>
        <style>
            @keyframes float1 {
                0%{transform: translate(0, 0)}
                50%{transform: translate(-10px, 0)}
                100%{transform: translate(0, 0)}
            }

            .triangle-float1 {
                animation: float1 5s infinite;
            }

            @keyframes float2 {
                0%{transform: translate(0, 0)}
                50%{transform: translate(-5px, -5px)}
                100%{transform: translate(0, 0)}
            }

            .triangle-float2 {
                animation: float2 4s infinite;
            }

            @keyframes float3 {
                0%{transform: translate(0, 0)}
                50%{transform: translate(0, -10px)}
                100%{transform: translate(0, 0)}
            }

            .triangle-float3 {
                animation: float3 6s infinite;
            }
        </style>
    </defs>
</svg>
