<svg width="709" height="406" viewBox="0 0 709 406" fill="none" xmlns="http://www.w3.org/2000/svg">
<rect x="103" y="368" width="26" height="26" rx="10" fill="#D9D9D9"/>
<rect x="241" y="349" width="26" height="26" rx="10" fill="#D9D9D9"/>
<rect x="39" y="316" width="26" height="52" rx="10" fill="white"/>
<rect x="126" y="334" width="26" height="26" rx="10" fill="#A52A2A"/>
<rect x="318" y="125" width="101" height="161" rx="50" fill="#A52A2A"/>
<rect x="327" y="68" width="87" height="187" rx="43.5" fill="#A52A2A"/>
<path d="M287.69 385.776L323.747 214.188L395.957 247.86L287.69 385.776Z" fill="#A52A2A"/>
<circle cx="376.5" cy="99.5" r="13.5" fill="white"/>
<ellipse cx="370.5" cy="114" rx="19.5" ry="16" fill="#A52A2A"/>
<path d="M261.775 327.031L322.388 154.495L380.888 188.27L261.775 327.031Z" fill="#A52A2A"/>
<path d="M304 85.5L358.75 69.4785V101.521L304 85.5Z" fill="#A52A2A"/>
<rect x="351" y="144" width="68" height="120" rx="34" fill="#D9D9D9"/>
<path d="M424.625 130.045L405 120.149L418.287 109L424.625 130.045Z" fill="#FFA500"/>
<rect x="369" y="288" width="8" height="27" rx="4" fill="#FFA500"/>
<rect x="385" y="283" width="8" height="31" rx="4" fill="#FFA500"/>
<rect x="359" y="315" width="8" height="44" rx="4" transform="rotate(-90 359 315)" fill="#FFA500"/>
<path d="M397.5 113L406.593 123.5H388.407L397.5 113Z" fill="#FFA500"/>
<rect x="169" y="42" width="26" height="26" rx="10" fill="#A52A2A"/>
<rect x="20" y="260" width="26" height="26" rx="10" fill="#A52A2A"/>
<rect x="13" y="315" width="52" height="26" rx="10" fill="#A52A2A"/>
<rect y="166" width="26" height="26" rx="10" fill="#D9D9D9"/>
<rect x="77" y="238" width="26" height="26" rx="10" fill="white"/>
<rect x="100" y="273" width="26" height="26" rx="10" fill="#D9D9D9"/>
<rect x="113" y="199" width="26" height="26" rx="10" fill="#A52A2A"/>
<rect x="64" y="170" width="26" height="26" rx="10" fill="#A52A2A"/>
<rect x="33" y="212" width="26" height="26" rx="10" fill="#D9D9D9"/>
<rect x="64" y="112" width="26" height="26" rx="10" fill="#D9D9D9"/>
<rect x="103" y="144" width="52" height="26" rx="10" fill="#D9D9D9"/>
<rect x="202" y="238" width="26" height="26" rx="10" fill="#A52A2A"/>
<rect x="113" y="16" width="26" height="26" rx="10" fill="#D9D9D9"/>
<rect x="346" y="314" width="73" height="26" rx="10" fill="#D9D9D9"/>
<rect x="351" y="327" width="63" height="26" rx="10" fill="#D9D9D9"/>
<rect x="359" y="340" width="49" height="26" rx="10" fill="#D9D9D9"/>
<rect y="26" width="52" height="26" rx="10" fill="#D9D9D9"/>
<rect y="52" width="52" height="26" rx="10" transform="rotate(-90 0 52)" fill="#A52A2A"/>
<rect x="162" y="96" width="26" height="26" rx="10" fill="#D9D9D9"/>
<rect x="218" y="129" width="26" height="26" rx="10" fill="#D9D9D9"/>
<rect x="254" y="70" width="26" height="26" rx="10" fill="#D9D9D9"/>
<rect x="132" y="121" width="26" height="52" rx="10" fill="#A52A2A"/>
<rect x="606" y="26" width="26" height="26" rx="10" transform="rotate(-180 606 26)" fill="#D9D9D9"/>
<rect x="468" y="45" width="26" height="26" rx="10" transform="rotate(-180 468 45)" fill="#D9D9D9"/>
<rect x="670" y="78" width="26" height="52" rx="10" transform="rotate(-180 670 78)" fill="white"/>
<rect x="583" y="60" width="26" height="26" rx="10" transform="rotate(-180 583 60)" fill="#A52A2A"/>
<rect x="540" y="352" width="26" height="26" rx="10" transform="rotate(-180 540 352)" fill="#A52A2A"/>
<rect x="689" y="134" width="26" height="26" rx="10" transform="rotate(-180 689 134)" fill="#A52A2A"/>
<rect x="696" y="79" width="52" height="26" rx="10" transform="rotate(-180 696 79)" fill="#A52A2A"/>
<rect x="709" y="228" width="26" height="26" rx="10" transform="rotate(-180 709 228)" fill="white"/>
<rect x="632" y="156" width="26" height="26" rx="10" transform="rotate(-180 632 156)" fill="#D9D9D9"/>
<rect x="609" y="121" width="26" height="26" rx="10" transform="rotate(-180 609 121)" fill="#A52A2A"/>
<rect x="596" y="195" width="26" height="26" rx="10" transform="rotate(-180 596 195)" fill="#A52A2A"/>
<rect x="645" y="224" width="26" height="26" rx="10" transform="rotate(-180 645 224)" fill="white"/>
<rect x="676" y="182" width="26" height="26" rx="10" transform="rotate(-180 676 182)" fill="#D9D9D9"/>
<rect x="645" y="282" width="26" height="26" rx="10" transform="rotate(-180 645 282)" fill="#D9D9D9"/>
<rect x="606" y="250" width="52" height="26" rx="10" transform="rotate(-180 606 250)" fill="#D9D9D9"/>
<rect x="507" y="156" width="26" height="26" rx="10" transform="rotate(-180 507 156)" fill="white"/>
<rect x="596" y="378" width="26" height="26" rx="10" transform="rotate(-180 596 378)" fill="#D9D9D9"/>
<rect x="709" y="368" width="52" height="26" rx="10" transform="rotate(-180 709 368)" fill="#D9D9D9"/>
<rect x="709" y="342" width="52" height="26" rx="10" transform="rotate(90 709 342)" fill="#A52A2A"/>
<rect x="547" y="298" width="26" height="26" rx="10" transform="rotate(-180 547 298)" fill="#D9D9D9"/>
<rect x="491" y="265" width="26" height="26" rx="10" transform="rotate(-180 491 265)" fill="#D9D9D9"/>
<rect x="577" y="273" width="26" height="52" rx="10" transform="rotate(-180 577 273)" fill="#A52A2A"/>
<ellipse cx="407" cy="113" rx="12" ry="11" fill="#FFA500"/>
<circle cx="409.5" cy="105.5" r="1.5" fill="black"/>
<path d="M290.856 377.518L338.911 266.573L362.911 280.429L290.856 377.518Z" fill="black" fill-opacity="0.5"/>
<path d="M266.856 316.518L323.93 189.951L347.93 203.808L266.856 316.518Z" fill="black" fill-opacity="0.5"/>
<circle cx="323.5" cy="198.5" r="13.5" fill="#A52A2A"/>
<circle cx="355.5" cy="273.5" r="13.5" fill="#A52A2A"/>
<circle cx="337.5" cy="272.5" r="13.5" fill="#A52A2A"/>
<circle cx="323.5" cy="198.5" r="13.5" fill="#A52A2A"/>
<circle cx="337.5" cy="198.5" r="13.5" fill="#A52A2A"/>
</svg>
