<?xml version="1.0" standalone="no"?>
<!DOCTYPE svg PUBLIC "-//W3C//DTD SVG 20010904//EN"
 "http://www.w3.org/TR/2001/REC-SVG-20010904/DTD/svg10.dtd">
<svg version="1.0" xmlns="http://www.w3.org/2000/svg"
 width="45.00pt" height="45.00pt" viewBox="0 0 145.00 171.00"
 preserveAspectRatio="xMinYMin meet">

<g transform="translate(0.000000,171.000000) scale(0.1000,-0.1000)"
fill="#813223" stroke="none">
<path d="M632 1684 c-194 -56 -369 -183 -481 -347 -188 -275 -191 -666 -9
-947 54 -83 175 -204 258 -258 72 -47 187 -95 279 -116 68 -16 64 -21 77 90
l6 61 -38 8 c-64 11 -176 59 -239 101 -131 86 -228 214 -281 369 -25 71 -28
94 -28 210 0 114 3 140 27 210 44 134 124 251 226 331 73 58 197 120 270 135
l58 12 -19 81 c-10 44 -20 81 -21 82 -1 1 -39 -9 -85 -22z m68 -44 c0 -5 -2
-10 -4 -10 -3 0 -8 5 -11 10 -3 6 -1 10 4 10 6 0 11 -4 11 -10z m-22 -29 c2
-15 9 -21 18 -17 8 3 14 1 14 -3 0 -9 -24 -21 -41 -21 -6 0 -8 9 -4 19 3 11 1
22 -5 26 -14 9 -13 28 3 23 6 -3 13 -15 15 -27z m-38 7 c0 -7 3 -23 6 -35 4
-14 2 -23 -5 -23 -6 0 -11 7 -11 15 0 8 -5 15 -11 15 -6 0 -8 -9 -4 -20 3 -11
2 -20 -3 -20 -12 0 -35 61 -26 69 4 3 9 0 11 -6 3 -7 9 -13 15 -13 6 0 8 7 4
15 -3 9 0 15 9 15 8 0 15 -6 15 -12z m-82 -28 c-2 -10 6 -26 17 -35 19 -16 19
-16 -7 -11 -22 5 -26 3 -22 -9 4 -8 2 -15 -4 -15 -12 0 -35 60 -27 69 4 3 10
0 14 -8 6 -9 10 -7 14 8 7 27 19 28 15 1z m-50 -45 c14 -30 15 -35 5 -35 -5 0
-16 14 -25 30 -13 22 -14 30 -4 30 7 0 18 -11 24 -25z m-33 -5 c4 -6 2 -17 -4
-24 -7 -8 -11 -18 -10 -22 5 -27 -4 -25 -22 5 -16 27 -18 36 -7 42 18 12 36
11 43 -1z m-44 -51 c9 -17 8 -25 -4 -37 -27 -26 -67 6 -53 43 8 22 44 18 57
-6z m-57 -37 c10 -16 -6 -50 -25 -55 -29 -8 -42 19 -30 61 2 6 50 1 55 -6z
m-60 -64 c11 -16 13 -25 4 -35 -15 -18 -32 -16 -53 7 -15 16 -15 22 -5 35 17
21 36 19 54 -7z m-60 -57 c0 -11 3 -21 8 -21 4 0 8 -4 8 -10 0 -15 -12 -12
-39 10 -19 17 -21 23 -11 35 17 21 35 13 34 -14z m-24 -41 c14 -10 22 -22 18
-26 -9 -8 -58 22 -58 36 0 15 12 12 40 -10z m-20 -30 c13 -11 21 -23 17 -26
-7 -7 -57 25 -57 37 0 15 15 10 40 -11z m-13 -36 c13 -4 21 -10 18 -14 -3 -5
-15 -6 -28 -2 -22 5 -22 5 -3 -16 11 -12 15 -22 11 -22 -11 0 -55 41 -55 52 0
9 26 10 57 2z m-32 -56 c28 -12 35 -34 8 -23 -10 4 -27 9 -38 12 -20 4 -20 4
-1 -11 11 -9 27 -16 35 -16 10 0 12 -3 5 -10 -6 -6 -20 -6 -41 2 -28 10 -30
14 -20 35 12 26 16 27 52 11z m-10 -90 c9 8 -4 -40 -14 -51 -10 -10 -61 15
-61 30 0 17 23 29 28 15 2 -7 8 -12 13 -12 4 0 5 8 2 18 -6 14 -4 15 9 5 8 -7
18 -9 23 -5z m-45 -108 c33 0 23 -17 -12 -23 -36 -5 -49 0 -30 12 7 4 10 16 7
27 -6 17 -6 18 5 2 6 -10 20 -18 30 -18z m16 -70 c15 -6 25 -13 22 -15 -7 -7
-88 27 -88 37 0 5 9 4 19 -2 11 -5 32 -15 47 -20z m4 -40 c0 -5 -15 -10 -34
-10 -19 0 -38 5 -41 10 -4 6 10 10 34 10 23 0 41 -4 41 -10z m-9 -30 c5 0 9
-4 9 -8 0 -4 -16 -8 -35 -9 -19 -1 -35 3 -35 7 0 11 22 19 38 14 8 -2 18 -4
23 -4z m9 -60 c0 -6 -7 -13 -15 -16 -23 -9 -18 -23 8 -17 18 4 19 3 7 -6 -18
-13 -60 -15 -60 -3 0 4 5 13 12 20 9 9 8 12 -7 13 -19 0 -19 1 0 9 28 12 55
12 55 0z m14 -65 c4 -11 -2 -15 -24 -15 -21 0 -30 -5 -30 -16 0 -10 5 -14 15
-10 8 3 21 9 29 12 16 6 30 -36 16 -50 -15 -15 -12 -26 5 -20 8 4 15 2 15 -3
0 -11 -57 -33 -64 -25 -3 3 -1 11 5 19 9 10 8 13 -5 13 -9 0 -16 4 -16 10 0 5
7 7 15 4 17 -7 48 14 40 26 -2 4 -16 5 -31 2 -46 -8 -54 40 -10 58 30 12 33
12 40 -5z m40 -133 c6 -10 -60 -33 -69 -24 -3 3 7 11 22 18 35 15 41 16 47 6z
m-4 -57 c-8 -10 -9 -15 -2 -15 6 0 14 5 17 11 5 6 12 4 20 -8 11 -15 11 -21
-2 -35 -14 -16 -14 -17 5 -13 25 4 47 -19 38 -41 -4 -12 -2 -15 9 -10 8 3 15
1 15 -4 0 -6 -9 -10 -20 -10 -11 0 -20 -7 -20 -15 0 -8 -5 -15 -11 -15 -6 0
-9 7 -5 15 3 10 -1 15 -12 16 -13 0 -13 2 4 9 12 4 24 16 28 26 6 14 1 16 -34
11 -22 -3 -40 -3 -40 0 0 3 9 18 21 34 22 32 15 37 -17 14 -28 -19 -38 -7 -18
22 15 24 15 24 -5 13 -12 -6 -21 -7 -21 -2 0 11 54 30 58 20 2 -5 -2 -15 -8
-23z m112 -148 c-15 -17 -3 -30 14 -16 7 5 15 6 18 1 3 -5 -8 -18 -24 -30 -17
-13 -31 -18 -35 -12 -3 6 -1 10 4 10 6 0 11 5 11 11 0 6 -9 8 -20 4 -28 -9
-25 2 8 30 28 24 43 26 24 2z m47 -54 c-12 -15 -12 -16 5 -10 15 6 17 4 13
-14 -4 -16 -3 -19 6 -10 23 23 30 10 7 -14 -29 -30 -44 -32 -37 -4 4 15 2 19
-10 15 -28 -11 -35 6 -12 30 25 27 49 33 28 7z m86 -66 c0 -7 7 -12 15 -13 39
-3 41 -4 34 -26 -6 -20 -5 -21 10 -9 14 12 16 11 17 -5 0 -11 3 -14 6 -6 2 6
9 12 14 12 6 0 2 -13 -8 -30 -20 -35 -33 -39 -33 -9 0 18 -3 19 -15 9 -24 -20
-37 -2 -19 26 22 33 13 39 -19 14 -31 -25 -41 -13 -26 29 11 30 24 34 24 8z
m130 -77 c-7 -21 10 -29 18 -7 2 6 7 9 11 6 3 -3 0 -21 -7 -39 -9 -19 -17 -28
-21 -21 -4 6 -4 16 -1 21 9 14 -8 13 -23 -2 -20 -20 -23 -3 -6 30 17 35 39 44
29 12z m59 -32 c-6 -20 -5 -21 10 -9 14 12 16 11 16 -5 0 -17 1 -17 15 2 19
25 19 15 0 -27 -14 -32 -15 -33 -21 -11 -6 22 -24 31 -24 12 0 -5 -7 -10 -16
-10 -11 0 -14 5 -9 18 4 9 10 25 12 35 3 9 10 17 15 17 5 0 6 -10 2 -22z m96
-37 c-6 -21 -5 -31 3 -35 7 -2 3 -5 -8 -5 -11 0 -27 4 -35 9 -13 8 -12 10 3
10 10 0 17 8 17 18 0 20 8 32 21 32 4 0 4 -13 -1 -29z"/>
<path d="M440 1530 c0 -5 5 -10 10 -10 6 0 10 5 10 10 0 6 -4 10 -10 10 -5 0
-10 -4 -10 -10z"/>
<path d="M380 1491 c0 -5 8 -17 17 -27 20 -20 32 -1 13 21 -14 17 -30 20 -30
6z"/>
<path d="M345 1440 c3 -5 8 -10 11 -10 2 0 4 5 4 10 0 6 -5 10 -11 10 -5 0 -7
-4 -4 -10z"/>
<path d="M325 1420 c3 -5 8 -10 11 -10 2 0 4 5 4 10 0 6 -5 10 -11 10 -5 0 -7
-4 -4 -10z"/>
<path d="M270 1381 c0 -6 9 -15 21 -21 18 -10 20 -9 17 7 -3 19 -38 32 -38 14z"/>
<path d="M235 1330 c3 -5 8 -10 11 -10 2 0 4 5 4 10 0 6 -5 10 -11 10 -5 0 -7
-4 -4 -10z"/>
<path d="M410 219 c0 -5 5 -7 10 -4 6 3 10 8 10 11 0 2 -4 4 -10 4 -5 0 -10
-5 -10 -11z"/>
<path d="M550 1422 c0 -4 6 -14 13 -21 12 -14 6 -13 -40 6 -17 7 -16 -9 2 -33
8 -11 14 -14 15 -6 0 10 5 10 21 2 29 -16 33 -7 14 29 -15 30 -25 39 -25 23z"/>
<path d="M461 1366 c-12 -14 -5 -46 10 -46 5 0 9 -7 9 -16 0 -9 -5 -12 -12 -8
-14 9 -59 13 -71 6 -10 -5 32 -52 46 -52 6 0 3 8 -6 18 -16 18 -16 18 11 15
19 -3 37 5 62 27 19 16 39 30 43 30 5 0 5 5 2 10 -5 8 -11 8 -20 0 -10 -8 -15
-6 -20 9 -7 24 -37 28 -54 7z m39 -17 c7 -11 9 -23 6 -26 -8 -9 -36 17 -36 33
0 21 18 17 30 -7z"/>
<path d="M674 1350 c-29 -12 -53 -52 -52 -89 l1 -32 22 21 c25 24 35 25 35 5
0 -9 8 -14 23 -12 14 1 21 -3 19 -12 -1 -7 2 -19 8 -26 6 -7 8 -19 4 -28 -3
-8 0 -18 6 -22 8 -5 6 -13 -6 -26 -15 -17 -15 -19 -1 -19 8 0 18 6 21 13 5 10
7 10 12 0 7 -16 31 -17 36 -1 3 8 12 5 27 -9 22 -20 22 -22 4 -32 -15 -9 -16
-12 -3 -20 8 -6 11 -13 7 -17 -4 -4 -15 3 -26 14 -10 12 -23 22 -30 22 -6 0
-11 7 -11 15 0 20 -16 19 -24 -1 -5 -13 -9 -14 -21 -4 -12 10 -15 10 -15 -3 0
-26 12 -47 26 -47 16 0 19 -16 4 -25 -6 -3 -13 1 -16 9 -8 21 -34 21 -34 0 0
-8 5 -12 10 -9 6 3 13 -1 16 -9 3 -9 18 -17 33 -17 22 -2 23 -2 4 -6 -12 -2
-31 1 -42 7 -18 9 -21 8 -21 -9 0 -11 9 -25 21 -31 16 -9 18 -14 9 -25 -9 -10
-6 -23 9 -52 11 -21 20 -32 21 -25 0 17 20 15 20 -2 0 -8 -6 -17 -12 -19 -9
-4 -10 -8 -2 -14 5 -4 10 -34 11 -66 0 -46 -3 -57 -14 -53 -20 8 -81 -53 -89
-89 -7 -28 -6 -29 10 -16 15 13 19 13 28 0 7 -11 11 -11 15 -1 2 6 11 12 18
12 7 0 16 -6 19 -12 5 -10 7 -10 12 0 7 14 34 16 34 2 0 -5 -7 -10 -15 -10 -9
0 -15 -9 -15 -25 0 -14 -4 -25 -10 -25 -5 0 -10 11 -10 25 0 28 -30 36 -30 8
-1 -16 -2 -16 -15 1 -8 11 -16 18 -18 15 -12 -16 -37 -59 -37 -63 0 -3 7 -3
15 0 8 4 15 1 15 -5 0 -6 -5 -11 -12 -11 -6 0 -3 -9 8 -21 11 -12 19 -36 19
-60 1 -22 7 -44 14 -49 8 -4 10 -13 7 -19 -5 -7 2 -11 18 -11 16 0 26 -6 26
-15 0 -10 10 -15 30 -15 20 0 30 5 30 15 0 9 9 15 25 15 16 0 25 6 25 15 0 18
-27 20 -32 3 -3 -7 -11 -5 -26 7 -11 10 -19 22 -16 27 9 13 24 9 24 -7 0 -20
16 -19 24 1 3 8 10 12 16 9 5 -3 10 0 10 9 0 8 6 17 13 19 9 4 9 8 -2 15 -7 5
-10 15 -7 21 9 14 -2 51 -15 51 -14 0 -39 26 -39 39 0 18 8 13 44 -24 19 -19
40 -35 48 -35 8 1 6 6 -7 16 -19 14 -19 16 -2 25 9 6 15 15 11 20 -4 6 -11 6
-20 -2 -11 -9 -15 -7 -21 7 -4 10 -2 19 5 22 15 5 16 42 2 42 -5 0 -10 7 -10
15 0 8 5 15 12 15 6 0 1 12 -13 26 -31 33 -34 80 -5 88 36 10 56 7 56 -8 0 -8
6 -17 13 -20 10 -5 10 -7 0 -12 -16 -7 -17 -34 -2 -34 6 0 8 -9 4 -20 -5 -15
2 -29 25 -52 21 -21 28 -33 20 -38 -9 -5 -9 -13 -1 -26 6 -11 18 -37 27 -59
14 -35 17 -38 24 -20 13 32 11 55 -5 55 -8 0 -15 7 -15 15 0 8 7 15 15 15 8 0
15 5 15 10 0 6 -7 10 -15 10 -8 0 -15 5 -15 10 0 6 5 10 11 10 14 0 43 -29 36
-37 -14 -13 13 -41 34 -36 18 5 20 3 15 -14 -4 -13 1 -29 13 -44 20 -24 20
-24 14 -2 -3 13 -9 23 -14 23 -5 0 -9 5 -9 10 0 6 7 10 15 10 11 0 13 8 8 33
-8 42 -11 44 -27 22 -10 -14 -15 -15 -21 -5 -5 9 -4 15 3 18 19 6 14 22 -8 22
-15 0 -20 7 -20 25 0 14 5 25 10 25 6 0 10 9 10 20 0 11 -4 20 -10 20 -5 0
-10 -4 -10 -10 0 -5 -11 -10 -25 -10 -14 0 -25 -4 -25 -10 0 -5 7 -10 15 -10
16 0 20 -15 7 -24 -5 -3 -17 5 -27 16 -12 15 -14 23 -7 26 20 6 13 22 -10 22
-21 0 -21 0 3 21 l24 21 -28 -7 c-17 -5 -27 -3 -27 4 0 6 9 11 21 11 27 0 49
23 49 52 0 23 0 23 -24 -4 -27 -32 -32 -33 -52 -14 -18 18 -18 24 0 42 18 17
33 18 39 2 4 -10 6 -10 6 0 1 6 8 12 16 12 19 0 19 7 -2 28 -12 12 -18 13 -21
4 -5 -15 -32 -16 -32 -1 0 7 10 20 22 30 20 18 20 20 5 37 -9 10 -20 33 -23
50 -7 37 -10 38 -31 16 -14 -13 -14 -17 -2 -24 11 -7 11 -12 1 -22 -9 -9 -12
-9 -12 5 0 9 -5 17 -11 17 -12 0 -39 25 -39 36 0 3 10 15 22 25 l21 19 -23 20
c-14 12 -20 26 -16 36 4 10 -4 26 -24 44 -16 15 -30 33 -30 38 0 6 -6 12 -12
15 -7 2 -9 8 -5 13 4 5 12 2 17 -5 7 -12 11 -11 26 4 17 17 17 18 -4 35 -17
14 -21 25 -16 48 5 26 2 32 -24 46 -33 17 -94 20 -128 6z m26 -25 c0 -8 -4
-15 -9 -15 -13 0 -22 16 -14 24 11 11 23 6 23 -9z m50 1 c0 -8 6 -16 13 -19 6
-2 9 -7 5 -11 -8 -10 -49 25 -42 36 8 13 24 9 24 -6z m70 -26 c0 -5 -4 -10 -9
-10 -6 0 -13 5 -16 10 -3 6 1 10 9 10 9 0 16 -4 16 -10z m-170 -20 c0 -5 -4
-10 -10 -10 -5 0 -10 5 -10 10 0 6 5 10 10 10 6 0 10 -4 10 -10z m124 -26 c8
-20 -2 -54 -15 -54 -13 0 -11 17 4 24 10 5 10 7 0 12 -15 6 -18 34 -4 34 5 0
12 -7 15 -16z m24 -225 c-2 -6 -8 -10 -13 -10 -5 0 -11 4 -13 10 -2 6 4 11 13
11 9 0 15 -5 13 -11z m42 -49 c0 -5 -9 -10 -20 -10 -11 0 -20 5 -20 10 0 6 9
10 20 10 11 0 20 -4 20 -10z m-70 -45 c0 -8 -4 -15 -10 -15 -5 0 -10 7 -10 15
0 8 5 15 10 15 6 0 10 -7 10 -15z m50 0 c0 -8 -4 -15 -9 -15 -13 0 -22 16 -14
24 11 11 23 6 23 -9z m50 1 c0 -8 -6 -16 -12 -19 -9 -3 -6 -11 10 -24 12 -11
22 -25 22 -32 0 -16 20 -14 26 4 8 19 24 20 24 1 0 -8 6 -16 13 -19 6 -2 8 -8
4 -13 -4 -5 -13 -2 -18 6 -8 11 -12 12 -16 3 -2 -7 -11 -13 -19 -13 -8 0 -14
-4 -14 -10 0 -5 7 -10 15 -10 17 0 20 -16 6 -25 -6 -3 -15 3 -20 12 -11 17
-11 17 -22 0 -5 -9 -14 -15 -20 -12 -12 8 -11 25 2 25 18 0 46 33 31 38 -6 2
-12 10 -12 18 0 8 -6 14 -14 14 -19 0 -28 28 -16 51 12 22 30 25 30 5z m94 6
c7 -11 -34 -46 -42 -36 -4 4 -1 9 6 11 6 3 12 11 12 19 0 15 16 19 24 6z
m-194 -52 c0 -5 -4 -10 -10 -10 -5 0 -10 5 -10 10 0 6 5 10 10 10 6 0 10 -4
10 -10z m50 0 c0 -5 -4 -10 -10 -10 -5 0 -10 5 -10 10 0 6 5 10 10 10 6 0 10
-4 10 -10z m30 -50 c0 -5 -7 -10 -15 -10 -8 0 -15 5 -15 10 0 6 7 10 15 10 8
0 15 -4 15 -10z m-30 -41 c0 -6 -6 -17 -14 -25 -14 -14 -36 -19 -36 -9 0 8 34
43 43 44 4 1 7 -4 7 -10z m-17 -71 c4 -10 8 -9 16 2 5 8 14 11 18 6 4 -5 2
-11 -4 -13 -7 -3 -13 -11 -13 -19 0 -8 -4 -14 -10 -14 -5 0 -10 -13 -10 -29 0
-36 -15 -48 -29 -24 -11 17 -11 17 -22 0 -5 -9 -14 -15 -20 -12 -12 8 -12 25
1 25 6 0 24 13 41 30 26 25 29 31 15 36 -9 3 -16 10 -16 15 0 14 28 11 33 -3z
m67 -68 c0 -5 -7 -10 -15 -10 -8 0 -15 5 -15 10 0 6 7 10 15 10 8 0 15 -4 15
-10z m90 0 c0 -5 -4 -10 -10 -10 -5 0 -10 5 -10 10 0 6 5 10 10 10 6 0 10 -4
10 -10z m-120 -70 c0 -5 -4 -10 -10 -10 -5 0 -10 5 -10 10 0 6 5 10 10 10 6 0
10 -4 10 -10z m-90 -90 c0 -5 -7 -10 -15 -10 -8 0 -15 5 -15 10 0 6 7 10 15
10 8 0 15 -4 15 -10z m-42 -11 c-2 -6 -8 -10 -13 -10 -5 0 -11 4 -13 10 -2 6
4 11 13 11 9 0 15 -5 13 -11z m162 -14 c0 -8 -7 -15 -15 -15 -8 0 -15 -4 -15
-10 0 -5 7 -10 15 -10 8 0 15 -4 15 -10 0 -15 -20 -12 -38 7 -12 12 -13 18 -4
21 6 2 12 10 12 18 0 8 7 14 15 14 8 0 15 -7 15 -15z m-99 -22 c6 9 14 15 20
12 14 -9 11 -25 -5 -25 -8 0 -17 -6 -20 -12 -5 -10 -7 -10 -12 0 -3 6 -12 12
-20 12 -15 0 -19 12 -7 24 4 4 13 -1 21 -11 13 -17 14 -17 23 0z m-51 -43 c0
-5 -4 -10 -10 -10 -5 0 -10 5 -10 10 0 6 5 10 10 10 6 0 10 -4 10 -10z m50
-25 c0 -8 -4 -15 -10 -15 -5 0 -10 7 -10 15 0 8 5 15 10 15 6 0 10 -7 10 -15z"/>
<path d="M770 660 c0 -5 5 -10 10 -10 6 0 10 5 10 10 0 6 -4 10 -10 10 -5 0
-10 -4 -10 -10z"/>
<path d="M880 1340 c0 -11 7 -20 15 -20 8 0 15 9 15 20 0 11 -7 20 -15 20 -8
0 -15 -9 -15 -20z"/>
<path d="M960 1340 c0 -11 7 -20 15 -20 8 0 15 9 15 20 0 11 -7 20 -15 20 -8
0 -15 -9 -15 -20z"/>
<path d="M420 1332 c0 -12 19 -26 26 -19 2 2 -2 10 -11 17 -9 8 -15 8 -15 2z"/>
<path d="M1122 1303 c5 -26 38 -29 38 -4 0 15 -6 21 -21 21 -14 0 -19 -5 -17
-17z"/>
<path d="M370 1271 c0 -5 14 -19 30 -31 35 -25 40 -13 7 18 -25 24 -37 28 -37
13z"/>
<path d="M920 1260 c0 -11 7 -20 15 -20 8 0 15 9 15 20 0 11 -7 20 -15 20 -8
0 -15 -9 -15 -20z"/>
<path d="M1040 1260 c0 -13 7 -20 20 -20 13 0 20 7 20 20 0 13 -7 20 -20 20
-13 0 -20 -7 -20 -20z"/>
<path d="M350 1254 c0 -4 8 -13 18 -21 15 -13 15 -14 -11 -10 -15 2 -29 1 -32
-3 -5 -9 55 -54 62 -46 3 3 -2 8 -11 12 -25 10 -19 22 9 16 34 -6 32 12 -5 38
-16 12 -30 18 -30 14z"/>
<path d="M1170 1180 c0 -25 4 -30 25 -30 21 0 25 5 25 30 0 25 -4 30 -25 30
-21 0 -25 -5 -25 -30z"/>
<path d="M1280 1170 c0 -23 4 -30 20 -30 16 0 20 7 20 30 0 23 -4 30 -20 30
-16 0 -20 -7 -20 -30z"/>
<path d="M324 1175 c19 -14 19 -15 -8 -15 -18 0 -26 -5 -23 -12 2 -7 9 -13 15
-12 7 1 23 2 37 3 35 2 31 17 -7 36 -29 14 -31 14 -14 0z"/>
<path d="M1040 1175 c0 -8 9 -15 20 -15 11 0 20 7 20 15 0 8 -9 15 -20 15 -11
0 -20 -7 -20 -15z"/>
<path d="M870 1164 c0 -8 5 -12 10 -9 6 4 8 11 5 16 -9 14 -15 11 -15 -7z"/>
<path d="M1000 1135 c0 -8 7 -15 15 -15 8 0 15 7 15 15 0 8 -7 15 -15 15 -8 0
-15 -7 -15 -15z"/>
<path d="M328 1123 c25 -10 11 -19 -23 -15 -39 5 -44 -6 -15 -33 23 -21 17
-39 -10 -25 -13 7 -21 6 -30 -5 -17 -21 -8 -50 18 -53 12 -2 22 -8 22 -13 0
-7 -12 -8 -30 -4 -18 4 -30 2 -30 -3 0 -10 58 -28 64 -20 2 1 10 26 18 54 14
49 14 52 -6 68 -21 17 -21 17 5 13 31 -6 59 27 33 37 -9 3 -19 6 -22 5 -4 0
-1 -3 6 -6z m-46 -111 c-27 -4 -37 2 -27 17 4 8 13 7 28 -1 l22 -13 -23 -3z"/>
<path d="M1080 1105 c0 -18 5 -25 20 -25 23 0 26 16 6 36 -20 20 -26 18 -26
-11z"/>
<path d="M891 1104 c0 -11 3 -14 6 -6 3 7 2 16 -1 19 -3 4 -6 -2 -5 -13z"/>
<path d="M800 1095 c0 -8 5 -15 10 -15 6 0 10 7 10 15 0 8 -4 15 -10 15 -5 0
-10 -7 -10 -15z"/>
<path d="M960 1095 c0 -8 7 -15 15 -15 8 0 15 7 15 15 0 8 -7 15 -15 15 -8 0
-15 -7 -15 -15z"/>
<path d="M1280 1065 c0 -20 5 -25 25 -25 20 0 25 5 25 25 0 20 -5 25 -25 25
-20 0 -25 -5 -25 -25z"/>
<path d="M1040 1010 c0 -13 7 -20 20 -20 13 0 20 7 20 20 0 13 -7 20 -20 20
-13 0 -20 -7 -20 -20z"/>
<path d="M1220 1000 c0 -25 -4 -30 -25 -30 -20 0 -25 -5 -25 -25 0 -24 3 -25
55 -25 61 0 61 0 49 73 -6 31 -11 37 -30 37 -20 0 -24 -5 -24 -30z"/>
<path d="M1340 1005 c0 -20 5 -25 25 -25 20 0 25 5 25 25 0 20 -5 25 -25 25
-20 0 -25 -5 -25 -25z"/>
<path d="M890 1000 c0 -5 5 -10 10 -10 6 0 10 5 10 10 0 6 -4 10 -10 10 -5 0
-10 -4 -10 -10z"/>
<path d="M1400 945 c0 -14 5 -25 10 -25 6 0 10 11 10 25 0 14 -4 25 -10 25 -5
0 -10 -11 -10 -25z"/>
<path d="M1040 925 c0 -8 9 -15 20 -15 11 0 20 7 20 15 0 8 -9 15 -20 15 -11
0 -20 -7 -20 -15z"/>
<path d="M233 913 c-18 -7 -16 -50 3 -57 27 -10 43 -7 54 13 16 32 -20 60 -57
44z m48 -28 c0 -5 -12 -11 -26 -13 -18 -2 -25 1 -25 13 0 12 7 15 25 13 14 -2
26 -7 26 -13z"/>
<path d="M1340 895 c0 -20 5 -25 25 -25 20 0 25 5 25 25 0 20 -5 25 -25 25
-20 0 -25 -5 -25 -25z"/>
<path d="M1080 886 c0 -7 9 -16 20 -19 15 -4 20 0 20 14 0 12 -7 19 -20 19
-11 0 -20 -6 -20 -14z"/>
<path d="M1040 845 c0 -8 9 -15 20 -15 11 0 20 7 20 15 0 8 -9 15 -20 15 -11
0 -20 -7 -20 -15z"/>
<path d="M1220 830 c0 -25 -4 -30 -24 -30 -16 0 -27 -7 -31 -20 -9 -28 0 -38
30 -32 18 3 25 11 25 27 0 21 6 24 55 30 49 7 55 10 55 31 0 22 -4 24 -55 24
-54 0 -55 0 -55 -30z"/>
<path d="M1402 835 c0 -16 2 -22 5 -12 2 9 2 23 0 30 -3 6 -5 -1 -5 -18z"/>
<path d="M220 830 c0 -5 16 -10 35 -10 19 0 35 5 35 10 0 6 -16 10 -35 10 -19
0 -35 -4 -35 -10z"/>
<path d="M1092 805 c-11 -13 -9 -15 8 -15 11 0 20 7 20 15 0 19 -11 19 -28 0z"/>
<path d="M238 803 c-24 -6 -22 -20 4 -29 19 -6 19 -7 5 -16 -10 -5 -17 -13
-17 -18 0 -13 41 -12 60 1 12 8 10 10 -10 5 -22 -4 -23 -4 -7 8 9 7 17 16 17
19 0 3 -8 8 -17 10 -13 3 -12 5 5 6 13 0 20 6 17 11 -6 10 -26 11 -57 3z"/>
<path d="M1340 770 c0 -27 -3 -30 -30 -30 -25 0 -30 -4 -30 -24 0 -19 -6 -25
-27 -28 -20 -2 -29 -9 -31 -25 -3 -20 1 -23 27 -23 26 0 31 4 31 25 0 20 5 25
25 25 21 0 25 -5 25 -30 0 -25 -4 -30 -25 -30 -20 0 -25 -5 -25 -25 0 -21 5
-25 29 -25 23 0 31 -5 34 -22 2 -13 2 1 -1 30 l-4 52 36 0 c31 0 36 3 36 24 0
18 -6 25 -22 28 -28 4 -38 45 -14 54 9 3 16 17 16 30 0 19 -5 24 -25 24 -21 0
-25 -5 -25 -30z"/>
<path d="M870 754 c0 -10 28 -34 39 -34 6 0 11 5 11 10 0 6 -7 10 -15 10 -8 0
-15 5 -15 10 0 6 -4 10 -10 10 -5 0 -10 -3 -10 -6z"/>
<path d="M1040 754 c0 -3 7 -12 15 -20 16 -17 18 -14 9 10 -6 15 -24 23 -24
10z"/>
<path d="M273 718 c-18 -5 -33 -13 -33 -19 0 -6 7 -9 15 -5 9 3 15 0 15 -8 0
-8 -6 -16 -12 -19 -7 -2 -10 -7 -7 -11 7 -8 69 13 69 24 0 4 -9 6 -20 3 -25
-7 -26 12 -3 26 26 14 13 19 -24 9z"/>
<path d="M1023 713 c-7 -2 -13 -9 -13 -15 0 -12 41 -6 41 7 1 12 -11 15 -28 8z"/>
<path d="M260 629 c0 -8 7 -24 15 -35 11 -14 14 -15 9 -2 -4 12 2 18 25 23 17
4 31 11 31 16 0 12 -17 11 -42 -2 -16 -9 -23 -8 -29 2 -7 11 -9 11 -9 -2z"/>
<path d="M1085 630 c4 -6 11 -8 16 -5 14 9 11 15 -7 15 -8 0 -12 -5 -9 -10z"/>
<path d="M338 588 c15 -15 16 -31 1 -22 -6 3 -15 0 -20 -7 -8 -12 -11 -12 -19
1 -5 8 -10 10 -10 4 0 -5 6 -19 14 -30 14 -18 15 -18 21 -1 4 9 18 17 31 17
22 0 23 2 12 25 -6 14 -18 25 -27 25 -12 0 -12 -3 -3 -12z"/>
<path d="M920 570 c0 -5 7 -10 16 -10 8 0 12 5 9 10 -3 6 -10 10 -16 10 -5 0
-9 -4 -9 -10z"/>
<path d="M1222 543 c2 -20 9 -29 26 -31 19 -3 22 1 22 27 0 27 -4 31 -26 31
-22 0 -25 -4 -22 -27z"/>
<path d="M347 522 c-15 -10 -25 -21 -21 -24 7 -7 64 24 64 35 0 12 -13 8 -43
-11z"/>
<path d="M368 495 l-27 -23 53 -58 c41 -44 54 -54 59 -41 4 11 2 14 -9 10 -22
-8 -17 14 8 31 19 13 20 17 7 33 -33 41 -33 41 -61 22 -16 -11 -29 -15 -33
-10 -3 6 6 18 20 27 14 9 25 20 25 25 0 15 -13 10 -42 -16z m82 -60 c0 -4 -7
-4 -16 -1 -12 4 -15 2 -11 -9 9 -21 -10 -28 -22 -8 -14 26 15 58 35 38 8 -7
14 -17 14 -20z"/>
<path d="M1164 494 c3 -9 6 -20 6 -25 0 -5 11 -9 25 -9 20 0 25 5 25 25 0 21
-5 25 -31 25 -24 0 -30 -3 -25 -16z"/>
<path d="M1280 490 c0 -11 5 -20 10 -20 6 0 10 9 10 20 0 11 -4 20 -10 20 -5
0 -10 -9 -10 -20z"/>
<path d="M1226 468 c-9 -34 -8 -38 9 -38 8 0 15 3 15 8 0 4 3 17 6 30 5 16 2
22 -9 22 -8 0 -17 -10 -21 -22z"/>
<path d="M1032 445 c-11 -12 -10 -15 3 -15 8 0 15 7 15 15 0 18 -2 18 -18 0z"/>
<path d="M469 418 c-5 -13 -4 -80 1 -83 7 -4 50 49 50 62 0 4 -7 -2 -15 -13
-14 -18 -14 -18 -15 9 0 15 -4 27 -10 27 -5 0 -10 -1 -11 -2z"/>
<path d="M523 345 c-14 -43 -3 -51 30 -25 35 27 40 25 23 -9 -15 -28 -14 -30
9 -45 24 -16 25 -15 40 13 17 33 19 51 7 51 -4 0 -13 -14 -19 -31 -7 -17 -17
-28 -22 -24 -7 4 -6 16 4 35 14 27 14 30 -5 40 -11 6 -20 7 -20 1 0 -5 -6 -11
-14 -14 -11 -4 -13 1 -10 19 7 37 -11 29 -23 -11z"/>
</g>
</svg>
