<svg xmlns="http://www.w3.org/2000/svg" version="1.1" xmlns:xlink="http://www.w3.org/1999/xlink" xmlns:svgjs="http://svgjs.com/svgjs" preserveAspectRatio="none" viewBox="0 0 1440 560">
    <g mask="url(&quot;#SvgjsMask1073&quot;)" fill="none">
        <rect width="1440" height="560" x="0" y="0" fill="rgba(18, 202, 226, 1)"></rect>
        <path d="M0,422.829C77.279,413.883,126.819,340.945,189.503,294.872C247.64,252.142,320.878,225.71,354.816,162.039C389.544,96.887,389.179,18.561,375.452,-53.982C362.108,-124.497,318.744,-181.899,278.489,-241.312C232.864,-308.652,200.149,-394.181,124.574,-424.261C47.76,-454.834,-46.957,-442.543,-117.086,-398.758C-183.058,-357.569,-189.072,-265.964,-232.407,-201.382C-268.775,-147.184,-332.797,-113.173,-350.811,-50.439C-369.937,16.166,-355.943,86.806,-334.038,152.55C-310.23,224.005,-278.515,294.896,-219.964,342.271C-158.007,392.402,-79.169,431.993,0,422.829" fill="#0c8393"></path>
        <path d="M1440 1181.545C1560.627 1187.144 1678.278 1153.499 1784.473 1096.011 1896.724 1035.245 2016.809 963.491 2062.776 844.412 2108.159 726.846 2045.287 600.238 2023.788 476.06399999999996 2002.983 355.901 2010.299 226.59199999999998 1938.714 127.86200000000002 1864.476 25.474000000000046 1751.792-61.69100000000003 1625.813-72.82000000000005 1503.997-83.58100000000002 1413.197 34.71199999999999 1296.453 71.12299999999999 1182.584 106.63799999999998 1042.563 59.471000000000004 952.162 137.286 860.233 216.41699999999997 848.033 352.346 830.339 472.344 812.591 592.706 797.358 719.763 850.108 829.395 902.453 938.184 1011.8199999999999 1003.078 1115.481 1064.961 1216.215 1125.096 1322.808 1176.106 1440 1181.545" fill="#58e0f2"></path>
    </g>
    <defs>
        <mask id="SvgjsMask1073">
            <rect width="1440" height="560" fill="#ffffff"></rect>
        </mask>
    </defs>
</svg>