<svg xmlns="http://www.w3.org/2000/svg" version="1.1" xmlns:xlink="http://www.w3.org/1999/xlink" xmlns:svgjs="http://svgjs.com/svgjs" preserveAspectRatio="none" viewBox="0 0 1440 560">
    <g mask="url(&quot;#SvgjsMask1004&quot;)" fill="none">
        <rect width="1440" height="560" x="0" y="0" fill="#0e2a47"></rect>
        <path d="M107.33 0C125.99 2.84 121.58 15.51 140 21.3C207.92 42.67 215.49 61.03 280 54.33C317.99 50.38 307.87 14.41 345 0C377.87 -12.76 382.5 0 420 0C490 0 490 0 560 0C630 0 630 0 700 0C762.9 0 767.36 -8.52 825.8 0C837.36 1.69 828.84 20.42 840 20.42C884.94 20.42 888.69 7.19 938 0C958.69 -3.02 959 0 980 0C1050 0 1050 0 1120 0C1153.34 0 1154.61 -6.66 1186.67 0C1224.61 7.87 1225.65 29.06 1260 29.06C1279.81 29.06 1273.84 4.39 1295 0C1343.84 -10.14 1347.5 0 1400 0C1439.15 0 1449.8 -19.51 1478.31 0C1519.8 28.39 1517.78 45.36 1540 95.79C1548.62 115.36 1540 117.89 1540 140C1540 210 1540 210 1540 280C1540 318.5 1555.16 325.01 1540 357C1522 395.01 1473.68 382.32 1473.68 420C1473.68 483.82 1559.35 523.23 1540 560C1522.51 593.23 1470 560 1400 560C1353.34 560 1351.27 568.11 1306.67 560C1281.27 555.38 1285.47 535.06 1260 534.55C1192.13 533.19 1176.43 581.64 1120 556.27C1049.02 524.36 1055.68 492.25 1005.17 420C985.68 392.12 1001.74 356 980 356C946.08 356 897.31 378.45 893.85 420C888.82 480.45 978.09 520.85 963.03 560C951.17 590.85 901.51 560 840 560C770 560 770 560 700 560C630 560 630 560 560 560C490 560 490 560 420 560C350 560 350 560 280 560C210 560 210 560 140 560C70 560 35 595 0 560C-35 525 0 490 0 420C0 350 0 350 0 280C0 210 0 210 0 140C0 70 -30.38 39.62 0 0C23.29 -30.38 55.99 -7.81 107.33 0" stroke="rgba(76, 205, 188, 1)" stroke-width="2"></path>
        <path d="M560 103.6C499.36 103.6 439.77 100.26 430 140C418.08 188.46 468.77 213.75 516.62 280C533.77 303.75 537.06 320 560 320C586.75 320 609.51 309.52 616 280C629.29 219.52 619.84 203.85 599.57 140C591.84 115.65 584.15 103.6 560 103.6" stroke="rgba(76, 205, 188, 1)" stroke-width="2"></path>
        <path d="M980 30C959.65 30 950.38 86.94 950.38 140C950.38 167.6 961.36 191.33 980 191.33C1003.67 191.33 1035 170.62 1035 140C1035 89.95 1001.96 30 980 30" stroke="rgba(76, 205, 188, 1)" stroke-width="2"></path>
        <path d="M1400 132C1395.76 132 1393.64 136.49 1393.64 140C1393.64 142.64 1396.4 144.31 1400 144.31C1409.58 144.31 1420 143 1420 140C1420 136.84 1408.94 132 1400 132" stroke="rgba(76, 205, 188, 1)" stroke-width="2"></path>
        <path d="M140 251.43C114.68 251.43 84 267.7 84 280C84 291.58 113.53 299.18 140 299.18C154.25 299.18 165.45 290.85 165.45 280C165.45 266.97 155.41 251.43 140 251.43" stroke="rgba(76, 205, 188, 1)" stroke-width="2"></path>
        <path d="M840 257.14C825.23 257.14 812.68 265.37 812.68 280C812.68 307.91 823.62 342.22 840 342.22C858.02 342.22 881.48 306.04 881.48 280C881.48 263.5 859.63 257.14 840 257.14" stroke="rgba(76, 205, 188, 1)" stroke-width="2"></path>
        <path d="M280 392.5C264.11 395.04 259.19 407.04 259.19 420C259.19 430.92 266.43 436.07 280 440.26C346.84 460.91 360.98 477 420 469.68C442.64 466.87 443.33 443.09 443.33 420C443.33 405.41 436.22 397.06 420 394.33C354.55 383.31 344.51 382.2 280 392.5" stroke="rgba(76, 205, 188, 1)" stroke-width="2"></path>
        <path d="M9.33 140C9.33 119.29 73.03 105.66 140 97.39C208.36 88.95 213.01 92.11 280 106.57C311.73 113.42 310.66 120.5 337.44 140C380.66 171.47 383.9 169.6 420 208.51C448.84 239.6 467.32 245.64 467.32 280C467.32 309.38 452.17 327.41 420 336C358.51 352.41 343.25 348.55 280 330C247.79 320.55 253.42 306.07 229.09 280C183.42 231.07 194.39 214.65 140 180C84.51 144.65 9.33 160.59 9.33 140" stroke="rgba(76, 205, 188, 1)" stroke-width="2"></path>
        <path d="M420 25C407.79 19.51 407.5 8.64 407.5 0C407.5 -3.86 413.75 0 420 0C490 0 490 0 560 0C630 0 630 0 700 0C737.54 0 747.23 -18.56 775.07 0C817.23 28.11 805.35 48.42 840 93.33C859.36 118.42 883.08 116.78 883.08 140C883.08 162.97 863.32 164.75 840 185.71C785.44 234.75 757.19 220.03 727.32 280C698.85 337.17 693.52 371.38 723.33 420C749.86 463.26 792.26 427.95 840 463.75C885.6 497.95 910 529.7 910 560C910 577.82 875 560 840 560C775.84 560 756.74 582.54 711.67 560C686.74 547.54 711.1 490 700 490C687.76 490 694.89 545.05 665 560C624.89 580.05 612.5 560 560 560C515 560 482.32 587.1 470 560C450.5 517.1 468.03 481.24 496.36 420C513.03 383.97 526.73 390.87 560 365.45C618.37 320.87 660.18 336.53 679.64 280C698.99 223.8 672.36 201.4 637.61 140C612.54 95.7 605.52 92.65 560 68.6C496.71 35.15 484.04 53.81 420 25" stroke="rgba(76, 205, 188, 1)" stroke-width="2"></path>
        <path d="M1164.8 140C1211.61 116.07 1215.25 95.09 1260 95.09C1289.89 95.09 1285.81 119.18 1314.09 140C1355.81 170.71 1356.5 169.91 1400 198.15C1464.33 239.91 1529.76 232.6 1529.76 280C1529.76 335.39 1474.15 381.88 1400 403.72C1339.27 421.61 1319.27 353.95 1260 359.46C1231.77 362.09 1248.54 394.76 1225 420C1178.54 469.83 1168.82 509.6 1120 509.6C1078.56 509.6 1070.92 471 1044.49 420C1011.42 356.2 983.2 339.72 1001 280C1020.95 213.06 1057.83 219.81 1120 166.67C1139.73 149.81 1141.61 151.86 1164.8 140" stroke="rgba(76, 205, 188, 1)" stroke-width="2"></path>
        <path d="M1400 32C1388.37 32 1374.55 9.86 1374.55 0C1374.55 -6.14 1387.28 0 1400 0C1409.49 0 1418.98 -5.4 1418.98 0C1418.98 10.6 1410.58 32 1400 32" stroke="rgba(76, 205, 188, 1)" stroke-width="2"></path>
        <path d="M0 396.67C60.5 365.18 77.29 340.21 140 347.12C183.23 351.88 175.59 383.91 211.89 420C245.59 453.51 241.81 458.56 280 486.32C338.09 528.56 404.44 540.2 404.44 560C404.44 577.04 342.22 560 280 560C210 560 210 560 140 560C70 560 35 595 0 560C-35 525 0 490 0 420C0 408.34 -9.5 401.62 0 396.67" stroke="rgba(76, 205, 188, 1)" stroke-width="2"></path>
        <path d="M560 33.6C526.71 9.33 483.64 8.77 483.64 0C483.64 -8.03 521.82 0 560 0C630 0 630 0 700 0C712.17 0 718.25 -9.53 724.35 0C763.05 60.47 796.65 79.84 789.6 140C784.47 183.78 734.71 207.88 700 207.88C677.73 207.88 697.67 167.41 675.65 140C627.67 80.27 622.71 79.33 560 33.6" stroke="rgba(76, 205, 188, 1)" stroke-width="2"></path>
        <path d="M1088.5 280C1092.79 259.86 1100.73 250 1120 250C1164.94 250 1206.67 245.37 1216.92 280C1231.83 330.37 1203.77 356.84 1170.31 420C1155.31 448.31 1143.39 462.93 1120 462.93C1100.14 462.93 1088.33 446.17 1083.82 420C1072.58 354.7 1074.7 344.86 1088.5 280" stroke="rgba(76, 205, 188, 1)" stroke-width="2"></path>
        <path d="M1292.94 280C1292.94 262.77 1348.64 252 1400 252C1424.36 252 1444.39 263.79 1444.39 280C1444.39 298.95 1426.32 322.33 1400 322.33C1350.6 322.33 1292.94 297.93 1292.94 280" stroke="rgba(76, 205, 188, 1)" stroke-width="2"></path>
        <path d="M89.44 420C100.11 396.58 116.82 395.07 140 395.07C154.4 395.07 152.09 407.74 164.59 420C222.09 476.39 219.37 480 280 532.37C300.41 550 326.67 552.57 326.67 560C326.67 566.39 303.34 560 280 560C210 560 210 560 140 560C102.44 560 73.62 584.2 64.88 560C48.34 514.2 62.55 479.05 89.44 420" stroke="rgba(76, 205, 188, 1)" stroke-width="2"></path>
        <path d="M549.39 420C549.39 413.95 553.84 410.91 560 410.91C572.11 410.91 585.93 411.64 585.93 420C585.93 432.85 569.99 453.33 560 453.33C551.72 453.33 549.39 435.16 549.39 420" stroke="rgba(76, 205, 188, 1)" stroke-width="2"></path>
        <path d="M808.89 560C808.89 553.52 826.2 536.67 840 536.67C850.24 536.67 856.97 552.66 856.97 560C856.97 564.32 848.49 560 840 560C824.44 560 808.89 565.18 808.89 560" stroke="rgba(76, 205, 188, 1)" stroke-width="2"></path>
    </g>
    <defs>
        <mask id="SvgjsMask1004">
            <rect width="1440" height="560" fill="#ffffff"></rect>
        </mask>
    </defs>
</svg>
